<svg xmlns="http://www.w3.org/2000/svg" viewBox="0 0 72.46 72.46"><defs><style>.cls-1{fill:#d2d2d2;}.cls-2,.cls-3,.cls-4{fill:none;stroke:#fff;stroke-width:2px;}.cls-2,.cls-3{stroke-linecap:round;}.cls-2{stroke-linejoin:round;}.cls-3,.cls-4{stroke-miterlimit:10;}</style></defs><g id="Layer_2" data-name="Layer 2"><g id="Layer_1-2" data-name="Layer 1"><circle class="cls-1" cx="36.23" cy="36.23" r="36.23"/><path class="cls-2" d="M30.81,35.45,49.17,17.09c.81-.82,2.53-.42,3.83.88h0c1.3,1.3,1.7,3,.88,3.83L35.63,40.06"/><line class="cls-3" x1="35.63" y1="40.06" x2="29.17" y2="41.74"/><line class="cls-2" x1="30.81" y1="35.45" x2="29.17" y2="41.74"/><line class="cls-4" x1="46.14" y1="20.11" x2="50.86" y2="24.83"/><path class="cls-2" d="M54.31,36.23V47.56a7.75,7.75,0,0,1-7.75,7.75H23.9a7.75,7.75,0,0,1-7.75-7.75V24.9a7.75,7.75,0,0,1,7.75-7.75H35.23"/></g></g></svg>