<svg xmlns="http://www.w3.org/2000/svg" viewBox="0 0 35.34 35.34"><defs><style>.cls-1{fill:#bcbec0;}</style></defs><g id="Layer_2" data-name="Layer 2"><g id="Layer_1-2" data-name="Layer 1"><path class="cls-1" d="M17.67,0A17.67,17.67,0,1,0,35.34,17.67,17.67,17.67,0,0,0,17.67,0Zm7.89,24a1,1,0,0,1,0,1.41,1,1,0,0,1-.7.29,1,1,0,0,1-.71-.29l-6.27-6.27L11.6,25.36A1,1,0,1,1,10.19,24l6.27-6.28L10.19,11.4a1,1,0,0,1,0-1.42,1,1,0,0,1,1.41,0l6.28,6.28L24.15,10a1,1,0,0,1,1.41,0,1,1,0,0,1,0,1.42l-6.27,6.27Z"/></g></g></svg>